<svg xmlns="http://www.w3.org/2000/svg" viewBox="0 0 1000 1000" width="1000" height="1000" preserveAspectRatio="xMidYMid meet" style="width: 100%; height: 100%; transform: translate3d(0px, 0px, 0px);"><defs><clipPath id="__lottie_element_36"><rect width="1000" height="1000" x="0" y="0"></rect></clipPath></defs><g clip-path="url(#__lottie_element_36)"><g transform="matrix(2.25,0,0,2.25,-594.091796875,-381.14947509765625)" opacity="1" style="display: block;"><g opacity="1" transform="matrix(0.9599999785423279,0,0,0.9599999785423279,19.616943359375,17.556488037109375)"><g opacity="1" transform="matrix(1.0127922296524048,0,0,1.0127922296524048,486.2560119628906,394.60400390625)"><path fill="rgb(239,35,60)" fill-opacity="1" d=" M0,146.74099731445312 C0,146.74099731445312 -141.45899963378906,5.281000137329102 -141.45899963378906,5.281000137329102 C-176.23599243164062,-29.496000289916992 -176.23599243164062,-85.88099670410156 -141.45899963378906,-120.65799713134766 C-106.68099975585938,-155.43499755859375 -50.29600143432617,-155.43600463867188 -15.519000053405762,-120.65799713134766 C-15.519000053405762,-120.65799713134766 0,-105.13899993896484 0,-105.13899993896484 C0,-105.13899993896484 15.519000053405762,-120.65799713134766 15.519000053405762,-120.65799713134766 C50.29600143432617,-155.43499755859375 106.68199920654297,-155.43499755859375 141.45899963378906,-120.65799713134766 C176.23599243164062,-85.88099670410156 176.23599243164062,-29.496000289916992 141.45899963378906,5.281000137329102 C141.45899963378906,5.281000137329102 0,146.74099731445312 0,146.74099731445312z"></path></g></g></g></g></svg>